#!OML:ASF E:\Steps\Project 1\Capture day 1\Session 2\Subject.ASF
:FULLY-SPECIFIED
:DEGREES
175
root 8.96195 16.3436 30.8363 -153.241 -2.27467 179.687
lowerback -28.7503 -1.27344 -5.78969
upperback -2.79826 -0.61792 -0.308034
thorax 12.8475 -0.934887 2.67621
lowerneck 3.09637 -4.76087 5.92413
upperneck -4.47302 -6.3727 -4.97217
head -2.36426 -3.17876 -2.43967
rclavicle 1.09332e-014 -2.38542e-015
rhumerus -35.6644 -24.6998 -77.2149
rradius 27.0666
rwrist 4.93461
rhand -8.07906 -53.3884
rfingers 7.12502
rthumb 17.8328 -82.5908
lclavicle 1.09332e-014 -2.38542e-015
lhumerus -30.3915 12.7597 77.668
lradius 17.8357
lwrist -9.9523
lhand -20.0145 -13.0001
lfingers 7.12502
lthumb 6.32582 16.8854
rfemur -25.1327 7.06329 18.4686
rtibia 8.73678
rfoot -20.1702 -9.35546
rtoes -32.7082
lfemur -25.1868 -8.25393 -17.1801
ltibia 8.5665
lfoot -8.74964 3.38527
ltoes -37.2973
176
root 8.96208 16.3437 30.8366 -153.262 -2.23974 179.615
lowerback -28.6695 -1.29828 -5.87939
upperback -2.82162 -0.629271 -0.31969
thorax 12.7786 -0.943353 2.71094
lowerneck 3.15177 -4.77483 5.9149
upperneck -4.41259 -6.38122 -4.92437
head -2.35221 -3.1819 -2.42073
rclavicle -1.78906e-015 -9.93923e-015
rhumerus -35.788 -24.863 -77.0703
rradius 26.944
rwrist 5.00435
rhand -8.23856 -53.1587
rfingers 7.12502
rthumb 17.6793 -82.375
lclavicle -1.78906e-015 -9.93923e-015
lhumerus -30.5786 12.8387 77.5835
lradius 17.8289
lwrist -9.99675
lhand -19.9367 -13.0386
lfingers 7.12502
lthumb 6.40095 16.8447
rfemur -25.1792 6.81458 18.4398
rtibia 8.86638
rfoot -20.2699 -9.12317
rtoes -32.5726
lfemur -25.1504 -8.28745 -17.2677
ltibia 8.54621
lfoot -8.83497 3.43584
ltoes -37.2333
177
root 8.95961 16.3429 30.836 -153.274 -2.21366 179.616
lowerback -28.667 -1.29653 -5.84937
upperback -2.80267 -0.631891 -0.32513
thorax 12.7999 -0.942243 2.68632
lowerneck 3.19864 -4.76553 5.89883
upperneck -4.36552 -6.3623 -4.90192
head -2.34225 -3.17125 -2.4103
rclavicle 4.37326e-015 -8.74653e-015
rhumerus -35.8408 -24.8742 -77.0369
rradius 26.9122
rwrist 4.969
rhand -8.26759 -53.0614
rfingers 7.12502
rthumb 17.6513 -82.2802
lclavicle 4.37326e-015 -8.74653e-015
lhumerus -30.6459 12.9542 77.4845
lradius 17.7323
lwrist -10.0809
lhand -19.8817 -13.4075
lfingers 7.12502
lthumb 6.45398 16.4742
rfemur -25.2771 6.5132 18.5091
rtibia 9.08873
rfoot -20.4257 -8.84646
rtoes -32.6773
lfemur -25.13 -8.2456 -17.3102
ltibia 8.56989
lfoot -8.85741 3.40235
ltoes -37.625
178
root 8.95833 16.3412 30.834 -153.273 -2.25298 179.72
lowerback -28.7188 -1.27607 -5.70371
upperback -2.77067 -0.644289 -0.299885
thorax 12.866 -0.940626 2.62612
lowerneck 3.19642 -4.72511 5.856
upperneck -4.27808 -6.30976 -4.95209
head -2.31005 -3.14287 -2.42187
rclavicle 2.13694e-015 -1.19271e-014
rhumerus -35.8927 -24.9293 -76.9657
rradius 26.8901
rwrist 5.03551
rhand -7.97796 -52.7923
rfingers 7.12502
rthumb 17.93 -81.9858
lclavicle 2.13694e-015 -1.19271e-014
lhumerus -30.6618 13.0178 77.4205
lradius 17.6151
lwrist -10.1619
lhand -19.905 -13.7275
lfingers 7.12502
lthumb 6.4315 16.1549
rfemur -25.3464 6.53908 18.6407
rtibia 9.25199
rfoot -20.5063 -8.90173
rtoes -32.9588
lfemur -25.1244 -8.25563 -17.1836
ltibia 8.56806
lfoot -8.78218 3.42841
ltoes -37.8168
179
root 8.95912 16.3403 30.835 -153.254 -2.31124 179.821
lowerback -28.7106 -1.27205 -5.56586
upperback -2.78253 -0.686983 -0.279317
thorax 12.8511 -0.952722 2.55379
lowerneck 3.25804 -4.69087 5.80832
upperneck -4.22401 -6.26178 -4.97948
head -2.29967 -3.11631 -2.4233
rclavicle -4.72114e-015 -1.03368e-014
rhumerus -35.9973 -25.1451 -76.8353
rradius 26.8165
rwrist 5.32338
rhand -7.66238 -52.6133
rfingers 7.12502
rthumb 18.2337 -81.7787
lclavicle -4.72114e-015 -1.03368e-014
lhumerus -30.7733 13.2281 77.2411
lradius 17.5236
lwrist -10.3985
lhand -19.9219 -13.8874
lfingers 7.12502
lthumb 6.41523 15.9955
rfemur -25.4269 6.79143 18.7115
rtibia 9.37002
rfoot -20.5132 -9.08092
rtoes -32.2054
lfemur -25.1688 -8.39416 -16.9971
ltibia 8.5729
lfoot -8.72045 3.60057
ltoes -37.5117
180
root 8.95837 16.3403 30.8369 -153.255 -2.35664 179.824
lowerback -28.6585 -1.28589 -5.51057
upperback -2.79461 -0.724763 -0.294218
thorax 12.8124 -0.965347 2.49053
lowerneck 3.36862 -4.63973 5.77694
upperneck -4.24079 -6.19218 -5.0253
head -2.32205 -3.07874 -2.43355
rclavicle 8.69683e-015 5.56597e-015
rhumerus -36.0763 -25.1732 -76.8071
rradius 26.7813
rwrist 5.35619
rhand -7.62465 -53.105
rfingers 7.12502
rthumb 18.27 -82.267
lclavicle 8.69683e-015 5.56597e-015
lhumerus -30.9342 13.4103 77.061
lradius 17.4852
lwrist -10.7051
lhand -20.0794 -13.6683
lfingers 7.12502
lthumb 6.26317 16.2191
rfemur -25.5423 6.96458 18.6689
rtibia 9.60646
rfoot -20.7315 -9.15927
rtoes -31.0645
lfemur -25.2043 -8.49598 -16.9627
ltibia 8.60218
lfoot -8.72572 3.65273
ltoes -37.1477
181
root 8.95768 16.3405 30.8366 -153.262 -2.38003 179.768
lowerback -28.6097 -1.29918 -5.55262
upperback -2.80366 -0.730905 -0.306416
thorax 12.7767 -0.969097 2.49896
lowerneck 3.36149 -4.63888 5.73856
upperneck -4.17185 -6.18985 -5.01985
head -2.2958 -3.07668 -2.4252
rclavicle 5.91384e-015 2.78299e-015
rhumerus -36.1943 -25.0934 -76.7606
rradius 26.8336
rwrist 5.18796
rhand -7.99672 -53.608
rfingers 7.12502
rthumb 17.912 -82.8031
lclavicle 5.91384e-015 2.78299e-015
lhumerus -31.0529 13.6169 76.9558
lradius 17.4168
lwrist -10.9935
lhand -20.3387 -13.3265
lfingers 7.12502
lthumb 6.01286 16.5682
rfemur -25.6214 7.15861 18.5448
rtibia 9.80774
rfoot -20.9745 -9.32253
rtoes -30.7461
lfemur -25.2122 -8.43396 -17.044
ltibia 8.60808
lfoot -8.74659 3.46339
ltoes -36.7628
182
root 8.95666 16.341 30.835 -153.263 -2.42407 179.759
lowerback -28.5981 -1.31514 -5.55519
upperback -2.79425 -0.749522 -0.301113
thorax 12.7835 -0.977121 2.49953
lowerneck 3.34864 -4.70008 5.73098
upperneck -4.13445 -6.26346 -4.91066
head -2.28013 -3.11483 -2.38465
rclavicle -4.42296e-015 1.63003e-014
rhumerus -36.3322 -25.0834 -76.6997
rradius 26.914
rwrist 5.12897
rhand -8.3913 -53.6926
rfingers 7.12502
rthumb 17.5323 -82.922
lclavicle -4.42296e-015 1.63003e-014
lhumerus -31.0754 13.8579 76.8569
lradius 17.2955
lwrist -11.1798
lhand -20.3268 -13.2816
lfingers 7.12502
lthumb 6.02429 16.6127
rfemur -25.6527 7.20671 18.517
rtibia 9.9034
rfoot -21.0646 -9.4212
rtoes -31.0275
lfemur -25.2212 -8.4261 -17.0448
ltibia 8.60574
lfoot -8.72974 3.37645
ltoes -36.5835
183
root 8.95385 16.3417 30.8323 -153.299 -2.48452 179.755
lowerback -28.5826 -1.33558 -5.51522
upperback -2.74804 -0.777862 -0.309058
thorax 12.8324 -0.985602 2.45648
lowerneck 3.36445 -4.70529 5.7485
upperneck -4.05294 -6.26296 -4.89385
head -2.25595 -3.11403 -2.38227
rclavicle 7.95139e-015 -9.14409e-015
rhumerus -36.3852 -25.059 -76.7075
rradius 26.9418
rwrist 5.04805
rhand -8.48222 -53.6288
rfingers 7.12502
rthumb 17.4448 -82.866
lclavicle 7.95139e-015 -9.14409e-015
lhumerus -31.0369 13.83 76.8322
lradius 17.2196
lwrist -11.1409
lhand -20.1693 -13.422
lfingers 7.12502
lthumb 6.17634 16.4679
rfemur -25.6186 7.06446 18.5409
rtibia 9.9564
rfoot -21.0565 -9.38243
rtoes -31.4552
lfemur -25.1667 -8.53648 -17.0349
ltibia 8.57749
lfoot -8.79116 3.43125
ltoes -36.8783
184
root 8.9542 16.3425 30.8324 -153.313 -2.53101 179.73
lowerback -28.5342 -1.35988 -5.53805
upperback -2.72396 -0.798798 -0.304924
thorax 12.8376 -0.994333 2.46703
lowerneck 3.3252 -4.68626 5.74964
upperneck -3.9437 -6.23691 -4.93083
head -2.21278 -3.1002 -2.39714
rclavicle 1.82385e-014 -2.94201e-014
rhumerus -36.4189 -25.1622 -76.6118
rradius 26.878
rwrist 5.06216
rhand -8.51955 -53.3666
rfingers 7.12502
rthumb 17.4089 -82.607
lclavicle 1.82385e-014 -2.94201e-014
lhumerus -31.0447 13.8605 76.7878
lradius 17.163
lwrist -11.2179
lhand -20.0823 -13.7575
lfingers 7.12502
lthumb 6.26033 16.13
rfemur -25.6097 7.18001 18.4995
rtibia 9.99425
rfoot -21.0574 -9.50674
rtoes -31.3209
lfemur -25.1588 -8.45497 -17.0896
ltibia 8.60126
lfoot -8.87557 3.2948
ltoes -37.1263
185
root 8.95348 16.343 30.83 -153.322 -2.5749 179.753
lowerback -28.5023 -1.35679 -5.50029
upperback -2.71697 -0.806981 -0.290742
thorax 12.8298 -0.994962 2.45898
lowerneck 3.34171 -4.71923 5.76119
upperneck -4.02523 -6.2798 -4.87795
head -2.24343 -3.12296 -2.37915
rclavicle -3.8266e-015 1.11319e-014
rhumerus -36.5184 -25.2563 -76.4899
rradius 26.8684
rwrist 5.06716
rhand -8.51919 -52.9721
rfingers 7.12502
rthumb 17.4092 -82.2125
lclavicle -3.8266e-015 1.11319e-014
lhumerus -31.1371 13.9335 76.7367
lradius 17.1749
lwrist -11.2856
lhand -19.8947 -13.9262
lfingers 7.12502
lthumb 6.44142 15.9559
rfemur -25.6043 7.27177 18.4951
rtibia 10.0219
rfoot -21.1329 -9.49329
rtoes -30.8657
lfemur -25.1441 -8.48292 -17.0593
ltibia 8.61791
lfoot -8.88929 3.30986
ltoes -37.2405
186
root 8.95538 16.3433 30.8282 -153.263 -2.58834 179.793
lowerback -28.5338 -1.35412 -5.48866
upperback -2.72467 -0.809706 -0.272807
thorax 12.8377 -0.997016 2.47152
lowerneck 3.3467 -4.72826 5.74197
upperneck -3.99052 -6.28936 -4.85353
head -2.23146 -3.12748 -2.36716
rclavicle -5.66536e-015 -1.47101e-014
rhumerus -36.6129 -25.079 -76.5152
rradius 26.9818
rwrist 4.77868
rhand -8.51796 -52.6143
rfingers 7.12502
rthumb 17.4104 -81.8546
lclavicle -5.66536e-015 -1.47101e-014
lhumerus -31.2279 13.9093 76.7412
lradius 17.2352
lwrist -11.2299
lhand -19.7078 -13.8011
lfingers 7.12502
lthumb 6.62189 16.0754
rfemur -25.6919 7.1817 18.5811
rtibia 10.0886
rfoot -21.1624 -9.35225
rtoes -30.8667
lfemur -25.2063 -8.37085 -17.0276
ltibia 8.65841
lfoot -8.88079 3.24194
ltoes -37.5892
187
root 8.95449 16.343 30.8237 -153.236 -2.55552 179.72
lowerback -28.5712 -1.36787 -5.55988
upperback -2.69325 -0.795916 -0.291243
thorax 12.8935 -0.994564 2.49609
lowerneck 3.28074 -4.69555 5.67982
upperneck -3.75525 -6.24413 -4.88578
head -2.13778 -3.10288 -2.3708
rclavicle 2.13694e-015 1.86858e-014
rhumerus -36.6874 -24.7853 -76.5935
rradius 27.1341
rwrist 4.40303
rhand -8.12467 -52.373
rfingers 7.12502
rthumb 17.7889 -81.5794
lclavicle 2.13694e-015 1.86858e-014
lhumerus -31.3189 13.739 76.8375
lradius 17.3706
lwrist -11.0412
lhand -19.7518 -13.6563
lfingers 7.12502
lthumb 6.57947 16.2215
rfemur -25.7124 7.03503 18.5257
rtibia 10.0991
rfoot -21.1233 -9.32501
rtoes -31.2737
lfemur -25.1824 -8.45269 -17.1121
ltibia 8.60466
lfoot -8.86764 3.27763
ltoes -37.4161
188
root 8.9543 16.3421 30.8218 -153.222 -2.54871 179.594
lowerback -28.5269 -1.4082 -5.6849
upperback -2.67834 -0.80575 -0.312096
thorax 12.8894 -1.00417 2.54085
lowerneck 3.3099 -4.67584 5.63917
upperneck -3.67074 -6.21552 -4.90323
head -2.11258 -3.08683 -2.37015
rclavicle 1.19271e-015 -7.15625e-015
rhumerus -36.8399 -24.6021 -76.5882
rradius 27.2815
rwrist 4.22127
rhand -7.67928 -52.4326
rfingers 7.12502
rthumb 18.2174 -81.5995
lclavicle 1.19271e-015 -7.15625e-015
lhumerus -31.4636 13.3865 76.9923
lradius 17.5574
lwrist -10.6783
lhand -19.8252 -13.5581
lfingers 7.12502
lthumb 6.50859 16.3219
rfemur -25.7122 6.88531 18.4168
rtibia 10.0937
rfoot -21.1101 -9.31276
rtoes -31.5897
lfemur -25.1641 -8.57867 -17.2416
ltibia 8.54522
lfoot -8.89551 3.23841
ltoes -36.3029
